<svg width="37" height="37" viewBox="0 0 37 37" fill="none" xmlns="http://www.w3.org/2000/svg">
<path d="M19.229 3.84959C18.7636 3.65015 18.2369 3.65015 17.7715 3.84959L4.82151 9.39959C4.14129 9.69111 3.70026 10.36 3.70026 11.1C3.70026 11.8401 4.14129 12.5089 4.82151 12.8004L9.71345 14.897C9.89134 14.6954 10.1143 14.5313 10.3715 14.421L17.7715 11.2496C18.7106 10.8471 19.7982 11.2822 20.2007 12.2213C20.6032 13.1604 20.1681 14.248 19.229 14.6505L14.1836 16.8128L17.7715 18.3504C18.2369 18.5499 18.7636 18.5499 19.229 18.3504L32.179 12.8004C32.8592 12.5089 33.3003 11.8401 33.3003 11.1C33.3003 10.36 32.8592 9.69111 32.179 9.39959L19.229 3.84959Z" fill="url(#paint0_linear_1_103)"/>
<path d="M6.12384 17.384L9.25026 18.7239V26.3119C8.61613 26.1681 7.9683 26.0605 7.30907 25.9913C6.43999 25.9002 5.75319 25.2134 5.66207 24.3443C5.58811 23.639 5.55026 22.9235 5.55026 22.1997C5.55026 20.5411 5.74896 18.9283 6.12384 17.384Z" fill="url(#paint1_linear_1_103)"/>
<path d="M17.2052 30.6591C15.9604 29.4388 14.5258 28.413 12.9503 27.63V20.3096L16.314 21.7512C17.7101 22.3495 19.2904 22.3495 20.6865 21.7512L30.8767 17.384C31.2515 18.9283 31.4503 20.5411 31.4503 22.1997C31.4503 22.9235 31.4124 23.639 31.3384 24.3443C31.2473 25.2134 30.5605 25.9002 29.6914 25.9913C25.8567 26.3934 22.4082 28.0977 19.7953 30.6591C19.076 31.3644 17.9246 31.3644 17.2052 30.6591Z" fill="url(#paint2_linear_1_103)"/>
<path d="M11.1003 33.3C12.122 33.3 12.9503 32.4717 12.9503 31.45V27.63C11.7873 27.0519 10.5474 26.6061 9.25026 26.3119V31.45C9.25026 32.4717 10.0785 33.3 11.1003 33.3Z" fill="url(#paint3_linear_1_103)"/>
<defs>
<linearGradient id="paint0_linear_1_103" x1="-0.168329" y1="-9.13852" x2="42.0849" y2="-7.38733" gradientUnits="userSpaceOnUse">
<stop stop-color="#2EE6FF"/>
<stop offset="1" stop-color="#1FAEFF"/>
</linearGradient>
<linearGradient id="paint1_linear_1_103" x1="-0.168329" y1="-9.13852" x2="42.0849" y2="-7.38733" gradientUnits="userSpaceOnUse">
<stop stop-color="#2EE6FF"/>
<stop offset="1" stop-color="#1FAEFF"/>
</linearGradient>
<linearGradient id="paint2_linear_1_103" x1="-0.168329" y1="-9.13852" x2="42.0849" y2="-7.38733" gradientUnits="userSpaceOnUse">
<stop stop-color="#2EE6FF"/>
<stop offset="1" stop-color="#1FAEFF"/>
</linearGradient>
<linearGradient id="paint3_linear_1_103" x1="-0.168329" y1="-9.13852" x2="42.0849" y2="-7.38733" gradientUnits="userSpaceOnUse">
<stop stop-color="#2EE6FF"/>
<stop offset="1" stop-color="#1FAEFF"/>
</linearGradient>
</defs>
</svg>
