<svg width="34" height="30" viewBox="0 0 34 30" fill="none" xmlns="http://www.w3.org/2000/svg">
<path d="M2 13C0.895431 13 9.65645e-08 13.8954 0 15C-9.65645e-08 16.1046 0.89543 17 2 17L2 13ZM33.4142 16.4142C34.1953 15.6332 34.1953 14.3668 33.4142 13.5858L20.6863 0.857866C19.9052 0.0768174 18.6389 0.0768172 17.8579 0.857866C17.0768 1.63891 17.0768 2.90524 17.8579 3.68629L29.1716 15L17.8579 26.3137C17.0768 27.0948 17.0768 28.3611 17.8579 29.1421C18.6389 29.9232 19.9052 29.9232 20.6863 29.1421L33.4142 16.4142ZM2 17L32 17L32 13L2 13L2 17Z" fill="url(#paint0_linear_1_44)"/>
<defs>
<linearGradient id="paint0_linear_1_44" x1="-1.92086" y1="14.5663" x2="14.9287" y2="35.5162" gradientUnits="userSpaceOnUse">
<stop stop-color="#2EE6FF"/>
<stop offset="1" stop-color="#1FAEFF"/>
</linearGradient>
</defs>
</svg>
