<svg width="19" height="19" viewBox="0 0 19 19" fill="none" xmlns="http://www.w3.org/2000/svg">
<path fill-rule="evenodd" clip-rule="evenodd" d="M3.72241 3.72229C3.72241 2.69437 4.5557 1.86108 5.58362 1.86108H9.85116C10.3448 1.86108 10.8182 2.05717 11.1672 2.40622L14.3445 5.58349C14.6935 5.93254 14.8896 6.40594 14.8896 6.89956V14.8895C14.8896 15.9174 14.0563 16.7507 13.0284 16.7507H5.58362C4.5557 16.7507 3.72241 15.9174 3.72241 14.8895V3.72229ZM5.58362 9.3059C5.58362 8.79194 6.00026 8.3753 6.51422 8.3753H12.0978C12.6118 8.3753 13.0284 8.79194 13.0284 9.3059C13.0284 9.81986 12.6118 10.2365 12.0978 10.2365H6.51422C6.00026 10.2365 5.58362 9.81986 5.58362 9.3059ZM6.51422 12.0977C6.00026 12.0977 5.58362 12.5144 5.58362 13.0283C5.58362 13.5423 6.00026 13.9589 6.51422 13.9589H12.0978C12.6118 13.9589 13.0284 13.5423 13.0284 13.0283C13.0284 12.5144 12.6118 12.0977 12.0978 12.0977H6.51422Z" fill="url(#paint0_linear_55_35)"/>
<defs>
<linearGradient id="paint0_linear_55_35" x1="2.26291" y1="-4.59707" x2="18.2158" y2="-4.10119" gradientUnits="userSpaceOnUse">
<stop stop-color="#2EE6FF"/>
<stop offset="1" stop-color="#1FAEFF"/>
</linearGradient>
</defs>
</svg>
