<svg width="33" height="33" viewBox="0 0 33 33" fill="none" xmlns="http://www.w3.org/2000/svg">
<path d="M17.667 3.78332C17.0226 3.13896 15.9779 3.13896 15.3335 3.78332L3.78351 15.3333C3.13914 15.9777 3.13914 17.0224 3.78351 17.6668C4.42787 18.3111 5.47259 18.3111 6.11696 17.6668L6.60023 17.1835V28.05C6.60023 28.9613 7.33896 29.7 8.25023 29.7H11.5502C12.4615 29.7 13.2002 28.9613 13.2002 28.05V24.75C13.2002 23.8388 13.939 23.1 14.8502 23.1H18.1502C19.0615 23.1 19.8002 23.8388 19.8002 24.75V28.05C19.8002 28.9613 20.539 29.7 21.4502 29.7H24.7502C25.6615 29.7 26.4002 28.9613 26.4002 28.05V17.1835L26.8835 17.6668C27.5279 18.3111 28.5726 18.3111 29.217 17.6668C29.8613 17.0224 29.8613 15.9777 29.217 15.3333L17.667 3.78332Z" fill="url(#paint0_linear_1_107)"/>
<defs>
<linearGradient id="paint0_linear_1_107" x1="-0.150128" y1="-8.15055" x2="37.5352" y2="-6.58868" gradientUnits="userSpaceOnUse">
<stop stop-color="#2EE6FF"/>
<stop offset="1" stop-color="#1FAEFF"/>
</linearGradient>
</defs>
</svg>
